<svg xmlns="http://www.w3.org/2000/svg" width="70" height="72.974" viewBox="0 0 70 72.974">
  <g transform="translate(0 2.549)" fill="none" opacity="0.6">
    <path d="M40.348-2.549C59.678-2.549,70,16.095,70,35.425,70,46,66.137,56.563,58.477,63.195c-5.889,5.1-14.72,7.23-23.477,7.23a35,35,0,0,1-35-35C0,16.095,21.018-2.549,40.348-2.549Z" stroke="none"/>
    <path d="M 40.34797668457031 -0.5488357543945312 C 38.12782287597656 -0.5488357543945312 35.82551193237305 -0.2831344604492188 33.50501251220703 0.2408905029296875 C 31.23970031738281 0.7524566650390625 28.94677734375 1.512123107910156 26.68994522094727 2.498786926269531 C 22.25885391235352 4.436031341552734 17.96806716918945 7.257854461669922 14.28144454956055 10.65918731689453 C 10.55952072143555 14.09309768676758 7.477523803710938 18.09891128540039 5.368614196777344 22.24357604980469 C 3.133369445800781 26.63654327392578 2 31.07135391235352 2 35.42480087280273 C 2 39.88065338134766 2.872230529785156 44.20215606689453 4.592475891113281 48.26926422119141 C 6.254467010498047 52.19864273071289 8.634166717529297 55.72801208496094 11.66547775268555 58.75932312011719 C 14.6967887878418 61.79063415527344 18.22614288330078 64.17033386230469 22.15552139282227 65.83231353759766 C 26.2226448059082 67.55256652832031 30.54414367675781 68.42479705810547 35 68.42479705810547 C 39.41532135009766 68.42479705810547 43.53926849365234 67.87870025634766 47.25730133056641 66.80166625976562 C 51.24603271484375 65.64620971679688 54.58027648925781 63.92402267456055 57.16792297363281 61.68249893188477 C 58.91214370727539 60.17264556884766 60.49162292480469 58.39867782592773 61.86246490478516 56.4099006652832 C 63.19248962402344 54.48034286499023 64.33392333984375 52.3382568359375 65.25506591796875 50.04313278198242 C 67.05081176757812 45.56883239746094 68 40.51388549804688 68 35.42480087280273 C 68 30.73074340820312 67.38140106201172 26.17480087280273 66.16139221191406 21.88352203369141 C 64.91975402832031 17.51623153686523 63.11219787597656 13.63337707519531 60.78890991210938 10.34278869628906 C 57.28081130981445 5.374076843261719 50.88681030273438 -0.5488357543945312 40.34797668457031 -0.5488357543945312 M 40.34797668457031 -2.548835754394531 C 59.67794418334961 -2.548835754394531 70 16.09483337402344 70 35.42480087280273 C 70 45.998291015625 66.13744354248047 56.56341171264648 58.47689056396484 63.19465637207031 C 52.58796691894531 68.29587554931641 43.75647735595703 70.42479705810547 35 70.42479705810547 C 15.6700325012207 70.42479705810547 0 54.75475311279297 0 35.42480087280273 C 0 16.09483337402344 21.01801300048828 -2.548835754394531 40.34797668457031 -2.548835754394531 Z" stroke="none" fill="#b48d62"/>
  </g>
</svg>
