<svg xmlns="http://www.w3.org/2000/svg" width="237.402" height="208.496" viewBox="0 0 237.402 208.496">
  <g data-name="More Posts" transform="translate(-866.799 -1991)">
    <g transform="translate(866.799 1993.549)" fill="none" opacity="0.8">
      <path d="M115.28-2.549c55.228,0,84.72,53.268,84.72,108.5,0,30.21-11.036,60.4-32.923,79.342-16.825,14.575-42.058,20.658-67.077,20.658a100,100,0,0,1-100-100C0,50.719,60.051-2.549,115.28-2.549Z" stroke="none"/>
      <path d="M 115.2799530029297 -0.548828125 C 108.6618118286133 -0.548828125 101.8085327148438 0.240997314453125 94.91045379638672 1.798751831054688 C 88.20897674560547 3.312118530273438 81.43244934082031 5.556533813476562 74.76911926269531 8.469696044921875 C 68.23109436035156 11.32809448242188 61.79315185546875 14.83338928222656 55.63412475585938 18.88827514648438 C 49.51736450195312 22.91534423828125 43.68045043945312 27.48103332519531 38.28550720214844 32.45848083496094 C 32.85745239257812 37.46650695800781 27.88169860839844 42.88717651367188 23.49647521972656 48.5699462890625 C 19.03009033203125 54.35789489746094 15.17172241210938 60.42483520507812 12.02850341796875 66.60223388671875 C 8.794586181640625 72.95791625976562 6.303375244140625 79.46111297607422 4.624069213867188 85.93116760253906 C 2.88287353515625 92.63972473144531 2.000015258789062 99.37411499023438 2.000015258789062 105.9472808837891 C 2.000015258789062 112.5977554321289 2.669891357421875 119.2434768676758 3.991058349609375 125.6998062133789 C 5.278427124023438 131.9910583496094 7.199371337890625 138.1793060302734 9.70050048828125 144.0926971435547 C 12.15644836425781 149.899169921875 15.19631958007812 155.4996643066406 18.73567199707031 160.7386169433594 C 22.24179077148438 165.9283142089844 26.26834106445312 170.8085632324219 30.70353698730469 175.2437591552734 C 35.13873291015625 179.678955078125 40.01898193359375 183.7055053710938 45.20867919921875 187.2116088867188 C 50.44761657714844 190.7509765625 56.04812622070312 193.7908325195312 61.85458374023438 196.2467803955078 C 67.76797485351562 198.7479248046875 73.95623016357422 200.6688690185547 80.24748229980469 201.9562225341797 C 86.70381164550781 203.2773895263672 93.34953308105469 203.9472808837891 100.0000076293945 203.9472808837891 C 106.2805328369141 203.9472808837891 112.4751739501953 203.5565032958984 118.411865234375 202.7857818603516 C 124.5882034301758 201.9839477539062 130.5239868164062 200.7650909423828 136.0543212890625 199.1630554199219 C 147.9700317382812 195.7113342285156 157.9669189453125 190.5350341796875 165.7678375244141 183.7775573730469 C 170.9890899658203 179.2578735351562 175.7129211425781 173.9537811279297 179.8080902099609 168.0126342773438 C 183.763916015625 162.2736511230469 187.156005859375 155.9096374511719 189.8900909423828 149.0973968505859 C 192.5573120117188 142.4517517089844 194.6020965576172 135.3730773925781 195.9676208496094 128.0580139160156 C 197.3162231445312 120.8338394165039 198 113.3946990966797 198 105.9472808837891 C 198 99.15025329589844 197.54345703125 92.33722686767578 196.64306640625 85.69747924804688 C 195.7393646240234 79.03336334228516 194.3808441162109 72.48764038085938 192.605224609375 66.24217224121094 C 190.807861328125 59.92012023925781 188.5660400390625 53.84638977050781 185.9419555664062 48.18972778320312 C 183.2659454345703 42.42106628417969 180.1621704101562 37.02186584472656 176.7168426513672 32.14208984375 C 169.4899597167969 21.90625 160.785400390625 13.91325378417969 150.8449249267578 8.385055541992188 C 140.1853332519531 2.45697021484375 128.2195739746094 -0.548828125 115.2799530029297 -0.548828125 M 115.2799530029297 -2.548828125 C 170.5084533691406 -2.548828125 200 50.71878051757812 200 105.9472808837891 C 200 136.1572570800781 188.9641723632812 166.3433074951172 167.0768127441406 185.2897033691406 C 150.2513732910156 199.8646087646484 125.0185089111328 205.9472808837891 100.0000076293945 205.9472808837891 C 44.77153015136719 205.9472808837891 1.52587890625e-05 161.1757507324219 1.52587890625e-05 105.9472808837891 C 1.52587890625e-05 50.71878051757812 60.05148315429688 -2.548828125 115.2799530029297 -2.548828125 Z" stroke="none" fill="#b48d62"/>
    </g>
    <g data-name="bg" transform="translate(876.799 2003.55)" fill="none" opacity="0.8">
      <path d="M103.752-2.549C153.458-2.549,180,45.392,180,95.1c0,27.189-9.932,54.356-29.631,71.408C135.226,179.623,112.517,185.1,90,185.1a90,90,0,0,1-90-90C0,45.392,54.046-2.549,103.752-2.549Z" stroke="none"/>
      <path d="M 103.751953125 -0.5488433837890625 C 97.8104248046875 -0.5488433837890625 91.65730285644531 0.160369873046875 85.46344757080078 1.55908203125 C 79.44447326660156 2.918319702148438 73.35772705078125 4.934310913085938 67.37232208251953 7.55108642578125 C 61.49845123291016 10.11911010742188 55.71434783935547 13.2684326171875 50.18067932128906 16.91162109375 C 44.68464660644531 20.53001403808594 39.44004821777344 24.63238525390625 34.59254455566406 29.104736328125 C 29.71554565429688 33.6043701171875 25.24502563476562 38.47463989257812 21.30517578125 43.58026123046875 C 17.29299926757812 48.77958679199219 13.8271484375 54.22923278808594 11.00390625 59.77781677246094 C 8.099929809570312 65.48509216308594 5.86297607421875 71.32436370849609 4.355255126953125 77.13341522216797 C 2.79241943359375 83.15471649169922 2 89.19876098632812 2 95.09766387939453 C 2 101.0696640014648 2.601531982421875 107.0373153686523 3.787872314453125 112.8348617553711 C 4.943878173828125 118.4840393066406 6.668777465820312 124.0407409667969 8.914657592773438 129.3506164550781 C 11.11994934082031 134.5645446777344 13.84962463378906 139.5935363769531 17.02783203125 144.2979125976562 C 20.17619323730469 148.9580841064453 23.79193115234375 153.3403930664062 27.77459716796875 157.3230590820312 C 31.75727844238281 161.3057403564453 36.13957214355469 164.9214630126953 40.79974365234375 168.0698394775391 C 45.50411987304688 171.248046875 50.53312683105469 173.9777221679688 55.74704742431641 176.1830139160156 C 61.05692291259766 178.4288940429688 66.61362457275391 180.1537933349609 72.26280212402344 181.3097839355469 C 78.06034851074219 182.4961395263672 84.02799987792969 183.0976715087891 90 183.0976715087891 C 95.64389801025391 183.0976715087891 101.2104263305664 182.7465209960938 106.544921875 182.0539703369141 C 112.0935516357422 181.3336334228516 117.4256744384766 180.23876953125 122.3932266235352 178.7997589111328 C 133.0893707275391 175.7012939453125 142.0612487792969 171.0564117431641 149.0601501464844 164.9936676025391 C 153.7465057373047 160.93701171875 157.986572265625 156.1760406494141 161.66259765625 150.8429565429688 C 165.2144775390625 145.6900329589844 168.2602996826172 139.9755554199219 170.7154541015625 133.8582611083984 C 173.1110687255859 127.8893585205078 174.9476776123047 121.5312652587891 176.1742553710938 114.9606170654297 C 177.3857269287109 108.4709167480469 178 101.7880630493164 178 95.09766387939453 C 178 88.98928833007812 177.5897216796875 82.86661529541016 176.7805786132812 76.89971160888672 C 175.968505859375 70.91139221191406 174.7477722167969 65.02961730957031 173.1523284912109 59.41776275634766 C 171.5375671386719 53.73799133300781 169.5235748291016 48.28153991699219 167.1663208007812 43.20004272460938 C 164.7629699707031 38.01913452148438 161.9756469726562 33.17033386230469 158.8817749023438 28.78834533691406 C 152.39501953125 19.60084533691406 144.5831756591797 12.42710876464844 135.6632232666016 7.466461181640625 C 126.0996704101562 2.14788818359375 115.3631744384766 -0.5488433837890625 103.751953125 -0.5488433837890625 M 103.751953125 -2.548843383789062 C 153.4575958251953 -2.548843383789062 180 45.39204406738281 180 95.09766387939453 C 180 122.2866363525391 170.0677490234375 149.4540710449219 150.3691253662109 166.5058135986328 C 135.2261962890625 179.6232604980469 112.5166473388672 185.0976715087891 90 185.0976715087891 C 40.29437255859375 185.0976715087891 0 144.8032836914062 0 95.09766387939453 C 0 45.39204406738281 54.04632568359375 -2.548843383789062 103.751953125 -2.548843383789062 Z" stroke="none" fill="#b48d62"/>
    </g>
    <g data-name="arrow and text" transform="translate(0 -10)">
      <text id="More_posts-2" data-name="More posts" transform="translate(906 2106)" fill="#b48d62" font-size="32" font-family="CormorantGaramond-SemiBold, Cormorant Garamond" font-weight="600"><tspan x="0" y="0">More posts</tspan></text>
      <path data-name="arrow right" d="M1.5,11.29h0L14.214,1.5M1.5,11.29l12.714,9.79M197.3,11.29H1.5" transform="translate(1104.299 2136.324) rotate(180)" fill="none" stroke="#b48d62" stroke-linecap="square" stroke-width="2" fill-rule="evenodd" opacity="0.8"/>
    </g>
  </g>
</svg>
